<svg xmlns="http://www.w3.org/2000/svg" aria-hidden="true" style="position:absolute;width:0;height:0;overflow:hidden">
	<def>
		<g id="symb-back-arrow" viewBox="0 0 32 32">
			<path d="M13.563 8.117c-.391-.391-1.024-.391-1.414 0l-7.173 7.172c-.024.024-.048.05-.069.077-.007.008-.013.017-.019.026-.013.018-.026.034-.039.053-.009.013-.016.027-.024.04-.009.014-.018.029-.026.044s-.015.03-.022.046c-.007.014-.014.028-.02.043-.007.016-.012.033-.018.049-.005.014-.011.029-.015.043-.006.018-.009.036-.014.054-.003.014-.007.027-.01.041-.005.024-.008.047-.011.071-.001.009-.003.017-.004.026-.007.067-.007.134 0 .201.001.004.001.008.002.011.003.029.008.058.013.086l.006.024c.006.024.011.047.018.071.003.008.006.016.009.025.008.023.016.046.025.068.003.007.006.013.009.02.011.023.021.046.033.069.003.004.006.009.008.013.013.024.027.047.043.071.001.002.003.004.004.006.034.051.074.099.118.143l7.176 7.176c.195.195.451.293.707.293s.512-.098.707-.293c.391-.391.391-1.024 0-1.414l-5.469-5.469H26.32c.552 0 1-.448 1-1s-.448-1-1-1H8.094l5.468-5.469c.391-.39.391-1.023 0-1.414z" />
		</g>
		<g id="symb-add-down" fill="none" viewBox="0 0 32 32">
			<path stroke-linecap="round" stroke-linejoin="round" stroke-width="2.6667" d="M18.667 5.333h8v8h-8v-8zm0 13.334h8v8h-8v-8zm-5.334-12c-2.122 0-4.157.843-5.657 2.343s-2.343 3.535-2.343 5.657.843 4.157 2.343 5.657 3.535 2.343 5.657 2.343" />
			<path stroke-linecap="round" stroke-linejoin="round" stroke-width="2.6667" d="m11.195 25.105 3.373-1.92-1.92-3.373" />
		</g>
		<g id="symb-add-up" fill="none" viewBox="0 0 32 32">
			<path stroke-linecap="round" stroke-linejoin="round" stroke-width="2.6667" d="M18.667 5.333h8v8h-8v-8zm0 13.334h8v8h-8v-8zm-5.334 7.164c-2.122 0-4.157-.843-5.657-2.343s-2.343-3.535-2.343-5.657.843-4.157 2.343-5.657 3.535-2.343 5.657-2.343" />
			<path stroke-linecap="round" stroke-linejoin="round" stroke-width="2.6667" d="m11.195 7.393 3.373 1.92-1.92 3.373" />
		</g>
		<g id="symb-bin" viewBox="0 0 32 32">
			<path d="M8.281 25.076c0 .789 1.158 1.871 1.93 1.871H21.79c.772 0 1.93-1.083 1.93-1.871V10.105H8.281v14.971zm16.982-19.24h-4.117l-2.058-2.467h-6.175l-2.058 2.467H6.738v2.467h18.526V5.836z" />
		</g>
		<g id="symb-caret-down" viewBox="0 0 32 32">
			<path d="m26.272 11.44-9.296 10.781c-.512.594-1.438.594-1.95 0L5.728 11.44c-.715-.827-.439-2.107.66-2.107h19.226c1.095 0 1.372 1.28.658 2.107z" />
		</g>
		<g id="symb-caret-left" viewBox="0 0 32 32">
			<path d="M20 27.5h-.002c-.414 0-.788-.168-1.059-.439l-10-10C8.668 16.79 8.5 16.415 8.5 16s.168-.789.439-1.061l10-10c.271-.271.646-.439 1.06-.439.828 0 1.5.672 1.5 1.5 0 .414-.168.789-.439 1.06l-8.939 8.939 8.939 8.939c.271.271.439.646.439 1.061 0 .828-.672 1.5-1.5 1.5z" />
		</g>
		<g id="symb-caret-right" viewBox="0 0 32 32">
			<path d="M11.478 29c-.936 0-1.696-.759-1.696-1.696 0-.468.19-.892.497-1.199l10.106-10.106L10.279 5.893c-.306-.307-.496-.73-.496-1.198 0-.936.759-1.696 1.696-1.696.468 0 .891.189 1.198.496L23.982 14.8c.307.307.497.731.497 1.199s-.19.892-.497 1.199L12.677 28.503c-.306.307-.729.497-1.197.497h-.002z" />
		</g>
		<g id="symb-check" viewBox="0 0 32 32">
			<path d="M29.333 16c0 7.364-5.97 13.333-13.333 13.333S2.667 23.363 2.667 16C2.667 8.636 8.637 2.667 16 2.667S29.333 8.637 29.333 16z" style="fill:var(--color1, #000)" />
			<path fill="#2ca9bc" d="M14.667 21.333h-.008c-.366 0-.698-.148-.939-.387l-4-4c-.242-.242-.392-.577-.392-.947 0-.739.599-1.339 1.339-1.339.37 0 .704.15.947.392l3.053 3.067 5.72-5.733c.242-.242.577-.392.947-.392.739 0 1.339.599 1.339 1.339 0 .37-.15.704-.392.947l-6.667 6.667c-.241.239-.573.387-.939.387h-.008z" style="fill:var(--color2, #2ca9bc)" />
		</g>
		<g id="symb-cross-back" viewBox="0 0 32 32">
			<path stroke-linecap="round" stroke-linejoin="round" stroke-width="2.6667" d="M25.333 25.333 6.666 6.666m18.667.001L6.666 25.334" />
		</g>
		<g id="symb-cross-radio" viewBox="0 0 32 32">
			<path d="M22.6 11.286c.521-.521.521-1.365 0-1.886s-1.365-.521-1.886 0L16 14.114 11.286 9.4c-.521-.521-1.365-.521-1.886 0s-.521 1.365 0 1.886L14.114 16 9.4 20.714c-.521.521-.521 1.365 0 1.886s1.365.521 1.886 0L16 17.886l4.714 4.714c.521.521 1.365.521 1.886 0s.521-1.365 0-1.886L17.886 16l4.714-4.714z" />
		</g>
		<g id="symb-cross" viewBox="0 0 32 32">
			<path d="M29.333 16c0 7.364-5.97 13.333-13.333 13.333S2.667 23.363 2.667 16C2.667 8.636 8.637 2.667 16 2.667S29.333 8.637 29.333 16z" style="fill:var(--color1, #000)" />
			<path fill="#ff8a80" d="m17.88 16 3.067-3.053c.242-.242.392-.577.392-.947 0-.739-.599-1.339-1.339-1.339-.37 0-.704.15-.947.392L16 14.12l-3.053-3.067c-.242-.242-.577-.392-.947-.392-.739 0-1.339.599-1.339 1.339 0 .37.15.704.392.947L14.12 16l-3.067 3.053c-.244.242-.394.577-.394.947s.151.705.394.947c.242.244.577.394.947.394s.705-.151.947-.394L16 17.88l3.053 3.067c.242.244.577.394.947.394s.705-.151.947-.394c.244-.242.394-.577.394-.947s-.151-.705-.394-.947z" style="fill:var(--color3, #ff8a80)" />
		</g>
		<g id="symb-dot-radio" viewBox="0 0 32 32">
			<path d="M18.667 16c0 1.473-1.194 2.667-2.667 2.667S13.333 17.473 13.333 16c0-1.473 1.194-2.667 2.667-2.667s2.667 1.194 2.667 2.667z" />
		</g>
		<g id="symb-down-arrow" viewBox="0 0 32 32">
			<path d="M16 4c.736 0 1.333.597 1.333 1.333v18.114l7.057-7.057c.521-.521 1.365-.521 1.886 0s.521 1.365 0 1.886l-9.333 9.333c-.521.521-1.365.521-1.886 0l-9.333-9.333c-.521-.521-.521-1.365 0-1.886s1.365-.521 1.886 0l7.057 7.057V5.333C14.667 4.597 15.264 4 16 4z" />
		</g>
		<g id="symb-info" viewBox="0 0 32 32">
			<path d="M16 9.333c.736 0 1.333.597 1.333 1.333v6.667c0 .736-.597 1.333-1.333 1.333s-1.333-.597-1.333-1.333v-6.667c0-.736.597-1.333 1.333-1.333zm1.333 12c0 .736-.597 1.333-1.333 1.333s-1.333-.597-1.333-1.333S15.264 20 16 20s1.333.597 1.333 1.333z" />
			<path d="M9.333 2.667c-3.682 0-6.667 2.985-6.667 6.667v13.333c0 3.682 2.985 6.667 6.667 6.667h13.333c3.682 0 6.667-2.985 6.667-6.667V9.334c0-3.682-2.985-6.667-6.667-6.667H9.333zm-4 6.666c0-2.209 1.791-4 4-4h13.333c2.209 0 4 1.791 4 4v13.333c0 2.209-1.791 4-4 4H9.333c-2.209 0-4-1.791-4-4V9.333z" />
		</g>
		<g id="symb-logo-dev" viewBox="0 0 32 32">
			<path fill="#2b72fc" d="M19.961 8.884 29.842 0v31.993l-.033-.03-9.848-23.079z" style="fill:var(--color4, #2b72fc)" />
			<path fill="#2798e3" d="M29.809 31.963 12.051 15.996l7.91-7.112 9.848 23.079z" style="fill:var(--color5, #2798e3)" />
			<path fill="#2bfca4" d="m2.21 31.925 9.773-22.904 7.613 6.975L2.209 31.925z" opacity=".36" style="fill:var(--color6, #2bfca4)" />
			<path fill="#2798e3" d="m2.21 31.925-.074.068V0l9.847 9.021L2.21 31.925z" style="fill:var(--color5, #2798e3)" />
		</g>
		<g id="symb-logo" viewBox="0 0 32 32">
			<path fill="#9fa8da" d="m30.819 22.962-2.662 5.278-3.108-2.209-1.952-1.47 1.451-.3 4.809-1.029z" style="fill:var(--color7, #9fa8da)" />
			<path fill="#7986cb" d="m27.764 17.215 1.593 6.016-4.809 1.029-2.774-9.81c.643-1.028 1.535-1.664 2.521-1.664 1.243 0 2.336 1.011 2.97 2.543l.458 1.731z" style="fill:var(--color8, #7986cb)" />
			<path fill="#5c6bc0" d="m21.773 14.45-.457-1.616c.098-.226.183-.467.254-.722.431-.649 1.002-1.081 1.676-1.198 1.287-.223 2.611.762 3.485 2.4l.533 2.015c-.634-1.531-1.728-2.543-2.97-2.543-.986 0-1.878.636-2.521 1.664z" style="fill:var(--color9, #5c6bc0)" />
			<path fill="#9fa8da" d="m19.893 4.599.353-.598c.518-.376 1.111-.589 1.742-.589.947 0 1.809.481 2.458 1.269l2.285 8.633c-.874-1.638-2.198-2.624-3.485-2.4-.674.117-1.245.549-1.676 1.198-.196.295-.363.635-.497 1.011l-.622.987c-.342.318-.739.529-1.179.605-1.392.242-2.827-.93-3.689-2.812l4.282-7.259z" style="fill:var(--color7, #9fa8da)" />
			<path fill="#7986cb" d="M17.766 18.458c-.571.667-1.393 1.211-2.199 1.211-.789 0-1.514-.385-2.079-1.027l-2.51-4.142c.357-1.563 1.214-2.696 2.372-2.897.712-.124 1.461-.018 2.113.505l.12-.204c.862 1.881 2.297 3.053 3.689 2.812.44-.076.837-.287 1.179-.605l-1.924 3.053z" style="fill:var(--color8, #7986cb)" />
			<path fill="#5c6bc0" d="M13.35 11.603c-1.158.201-2.015 1.334-2.372 2.897l-1.25-2.063-.149.548c.332-1.653 1.209-2.863 2.409-3.071 1.27-.22 2.576.736 3.45 2.335-.652-.523-1.376-.769-2.088-.646z" style="fill:var(--color9, #5c6bc0)" />
			<path fill="#9fa8da" d="m2.942 21.882-.789 2.862c-.078.188-.26.319-.472.319-.283 0-.513-.234-.513-.524 0-.021.001-.041.004-.061L6.433 5.111c.361-.963 1.29-1.648 2.379-1.648.821 0 1.551.389 2.015.994l.738 1.218 3.874 6.574c-.874-1.599-2.18-2.555-3.45-2.335-1.201.208-2.077 1.418-2.409 3.071L5.721 27.191c-.052.233-.256.407-.5.407-.283 0-.513-.234-.513-.524 0-.029.002-.057.007-.085l1.519-5.394c.012-.044.017-.091.017-.14 0-.289-.23-.524-.513-.524-.212 0-.394.131-.472.319l-1.914 7.039c-.032.082-.084.154-.151.21-.089.074-.202.119-.326.119-.283 0-.513-.234-.513-.524v-.013L3.97 21.96c.004-.025.006-.051.006-.077 0-.289-.23-.524-.513-.524-.199 0-.437.352-.522.521z" style="fill:var(--color7, #9fa8da)" />
		</g>
		<g id="symb-mark-spcl" viewBox="0 0 32 32">
			<path d="M14.891 1.415c.209-.422.64-.69 1.111-.69s.902.268 1.111.69l3.984 8.074c.18.365.529.619.933.677l8.91 1.294c.467.068.854.395 1 .843s.024.941-.313 1.27l-6.446 6.285c-.292.284-.425.694-.357 1.096l1.521 8.874c.079.465-.111.935-.494 1.212-.382.276-.886.313-1.305.095l-7.969-4.19c-.36-.19-.792-.19-1.153 0l-7.969 4.19c-.417.219-.923.183-1.305-.094s-.572-.747-.493-1.212l1.522-8.874c.069-.402-.065-.812-.357-1.096L.376 13.574c-.338-.329-.459-.822-.313-1.27s.533-.775 1-.843l8.911-1.294c.403-.059.752-.312.933-.678l3.986-8.073z" />
		</g>
		<g id="symb-mode" viewBox="0 0 32 32">
			<path stroke-linejoin="round" stroke-width="3.3333" d="M21.333 16c0 2.946-2.388 5.333-5.333 5.333S10.667 18.945 10.667 16c0-2.946 2.388-5.333 5.333-5.333s5.333 2.388 5.333 5.333z" />
			<path stroke-linecap="round" stroke-width="3.3333" d="M26.667 16H28M4 16h1.333M16 26.667V28m0-24v1.333m7.543 18.21.943.943M7.515 7.515l.943.943m0 15.085-.943.943m16.97-16.971-.943.943" />
		</g>
		<g id="symb-pdf" viewBox="0 0 32 32">
			<path d="M10.08 20.52c-.754-.46-1.645-.644-2.52-.52H5.333v8h1.773v-3.053h.76c.787.081 1.578-.112 2.24-.547.562-.482.871-1.194.84-1.933.042-.751-.281-1.475-.867-1.947zm-1.427 2.92c-.335.147-.703.203-1.067.16h-.52v-2.267h.52c.378-.04.759.034 1.093.213.312.217.489.581.467.96.04.382-.155.751-.493.933zM14.76 20h-2.213v8h2.12c1.08.106 2.168-.103 3.133-.6 1.062-.791 1.629-2.083 1.493-3.4.079-1.128-.323-2.238-1.107-3.053-.968-.763-2.204-1.105-3.427-.947zm1.76 6.187c-.555.312-1.192.451-1.827.4h-.347v-5.173h.32c1.12 0 1.56.107 2 .507.534.556.81 1.311.76 2.08.069.833-.269 1.647-.907 2.187zM21.24 28h1.8v-3.347h3.627V23.24H23.04v-1.827h3.627V20H21.24v8zM20 2.667H5.333v14.667H8v-12h10.893L24 10.441v6.893h2.667v-8L20 2.667z" />
		</g>
		<g id="symb-share" viewBox="0 0 32 32">
			<path d="M3.422 31.838c-.914 0-1.778-.354-2.422-.996-.65-.646-1.006-1.506-1.004-2.422s.366-1.78 1.02-2.432c.364-.364.816-.636 1.348-.814l.64-.214-.192-.642C2.25 22.42 2.65 20.554 3.88 19.33l1.26-1.254 1.824 1.812-.85.844c-1.428 1.422-1.31 3.166.318 4.792.868.86 1.746 1.296 2.62 1.296.778 0 1.486-.33 2.172-1.008l7.778-7.744 1.828 1.818-8.196 8.152c-.844.84-1.978 1.284-3.29 1.284-.59 0-1.188-.092-1.788-.276l-.648-.198-.22.638c-.18.526-.454.976-.816 1.338-.654.654-1.524 1.014-2.45 1.014zm21.672-19.784.39-.39c.48-.474.858-1.32.962-2.156.142-1.124-.198-2.156-.958-2.914-.666-.668-1.554-1.02-2.558-1.02s-2.086.378-2.63.926l-7.33 7.29-1.86-1.85 8.152-8.11c.856-.848 2.008-1.296 3.33-1.296.604 0 1.218.096 1.83.284l.656.202.214-.646c.176-.532.454-.986.824-1.356C26.772.366 27.644.006 28.57.006c.914 0 1.778.354 2.422.996.648.644 1.004 1.506 1.002 2.422-.002.918-.366 1.78-1.018 2.43-.366.364-.818.638-1.348.814l-.648.216.204.654c.63 1.982.25 3.912-1.004 5.164l-1.218 1.21-1.868-1.858z" />
			<path d="M3.86 12.46c-1.214-1.21-1.63-3.042-1.108-4.904l.174-.626-.616-.216c-.494-.178-.924-.444-1.268-.79C.394 5.282.034 4.426.034 3.516c0-.922.364-1.79 1.024-2.442C1.714.422 2.582.06 3.508.06c.918 0 1.78.354 2.426.998.348.346.61.766.786 1.252l.222.62.632-.182c.566-.166 1.138-.252 1.7-.252 1.31 0 2.454.448 3.304 1.292l1.378 1.376-1.806 1.8-.762-.762c-.322-.318-1.2-1.06-2.444-1.06-.934 0-1.822.416-2.644 1.236-1.21 1.204-1.304 2.338-1.168 3.076.16.862.668 1.516 1.066 1.912l7.606 7.566-1.72 1.708-8.224-8.18zm24.636 19.366c-.918 0-1.778-.356-2.426-.996-.378-.376-.656-.848-.828-1.396l-.204-.65-.656.188c-.536.148-1.072.226-1.602.226-1.32 0-2.532-.482-3.41-1.356l-1.16-1.158 1.714-1.704.432.432c.498.494 1.52.824 2.538.824.988 0 1.856-.316 2.434-.894.61-.606.946-1.53.946-2.604 0-1.018-.304-1.976-.778-2.442l-7.334-7.3 1.802-1.794 8.07 8.026c1.234 1.23 1.632 3.12 1.06 5.046l-.194.66.66.206c.55.17 1.022.45 1.402.826.646.64 1.004 1.496 1.004 2.408 0 .922-.368 1.788-1.022 2.442-.652.65-1.524 1.01-2.448 1.01z" />
		</g>
		<g id="symb-tick-radio" viewBox="0 0 32 32">
			<path fill="none" stroke-linecap="round" stroke-linejoin="round" stroke-width="3.3333" d="m6.522 17.692 5.699 5.699 12.724-12.724" />
		</g>
		<g id="symb-tick-input" viewBox="0 0 32 32">
			<path d="M16 2.667C8.653 2.667 2.667 8.654 2.667 16S8.654 29.333 16 29.333c7.347 0 13.333-5.987 13.333-13.333S23.346 2.667 16 2.667zm6.373 10.266-7.56 7.56c-.187.187-.44.293-.707.293s-.52-.107-.707-.293L9.626 16.72c-.387-.387-.387-1.027 0-1.413s1.027-.387 1.413 0l3.067 3.067 6.853-6.853c.387-.387 1.027-.387 1.413 0s.387 1.013 0 1.413z" />
		</g>
		<g id="symb-up-arrow" viewBox="0 0 32 32">
			<path d="M16 4c.354 0 .693.14.943.391l9.333 9.333c.521.521.521 1.365 0 1.886s-1.365.521-1.886 0l-7.057-7.057v18.114c0 .736-.597 1.333-1.333 1.333s-1.333-.597-1.333-1.333V8.553L7.61 15.61c-.521.521-1.365.521-1.886 0s-.521-1.365 0-1.886l9.333-9.333c.25-.25.589-.391.943-.391z" />
		</g>
		<g id="symb-rupee" viewBox="0 0 32 32">
			<path d="M25.991 2.882V.006h-12.72c-.095-.003-.191-.005-.287-.005L6.01.006c-.001 0 0 1.438 0 1.438v1.438h7.178c1.679.062 3.179.886 4.205 2.157H6.01v2.876h12.687c.067.376.104.763.104 1.16 0 3.417-2.609 6.197-5.816 6.197H6.01v2.876h8.413c3.207 0 5.816 2.781 5.816 6.199v7.652h2.876v-7.652c0-3.543-1.955-6.618-4.798-8.112 2.043-1.662 3.36-4.254 3.36-7.161 0-.393-.024-.78-.071-1.16h4.385V5.038h-5.223c-.378-.792-.864-1.518-1.437-2.157h6.66z" />
		</g>
	</def>
</svg>