<svg version="1.1" xmlns="http://www.w3.org/2000/svg" xmlns:xlink="http://www.w3.org/1999/xlink" width="590.11605" height="301.24103" viewBox="-99.55558,215.79336,590.11605,301.24103"><g fill="none" fill-rule="nonzero" stroke="#000000" stroke-width="0" stroke-linecap="butt" stroke-linejoin="miter" stroke-miterlimit="10" stroke-dasharray="" stroke-dashoffset="0" font-family="none" font-weight="none" font-size="none" text-anchor="none" style="mix-blend-mode: normal"><g id="Group 1"><path d="M391.68949,411.75693l-0.00126,0.09017c-0.11095,7.97178 5.57869,10.47414 11.37931,5.00472l54.33995,-51.23738c2.04233,-1.92572 6.64648,-2.70406 9.20832,-1.5567l18.97634,8.49887c5.54652,2.48409 6.67011,9.13622 2.24722,13.30424l-135.81679,127.99019c-3.1099,2.93068 -10.11971,4.11471 -14.01964,2.36805l-17.88101,-8.00831c-4.75609,-2.13009 -5.72393,-7.83885 -1.93568,-11.41751l24.79576,-23.42402c6.40879,-6.05424 12.8244,-20.92473 12.8312,-29.74099l0.02465,-31.8991l0.07514,-97.25149l0.29838,-0.00395v-0.32771c0,-1.78932 -1.78932,-3.57864 -3.57864,-3.57864h-14.2378c-8.86831,0 -17.73664,-8.86831 -17.73664,-17.73664v-0.07981c0,-8.86831 8.86831,-17.73664 17.73664,-17.73664h6.87703c0,-32.54474 26.25459,-58.79933 58.79933,-58.79933c16.40912,0 30.90384,6.56364 41.56977,17.22958l-25.16064,25.16064c-4.10229,-4.10229 -9.84547,-6.83712 -16.40912,-6.83712c-12.85381,0 -23.24624,10.39244 -23.24624,23.24624l54.69706,-0.00002v13.31611c0,11.11849 -11.11849,22.23697 -22.23697,22.23697h-21.52068v3.43559z" id="Path 1" fill="#1c4670"/><path d="M292.9142,275.01429c8.84778,0 17.69555,8.84778 17.69555,17.69555v0.162c0,8.84778 -8.84778,17.69555 -17.69555,17.69555h-60.28284v-35.55308z" id="Path 1" fill="#741aac"/><path d="M302.88173,320.78156h7.53918c14.00695,0 28.0139,14.00695 28.0139,28.0139v66.37258h-35.55308z" id="Path 1" fill="#5d6c89"/><path d="M43.73827,378.67015l-9.55498,32.7196l-2.22065,0.22021c-17.94021,1.77904 -44.23437,-12.41776 -52.58831,-28.39361l-78.92991,-150.94309l41.36688,-4.10212l15.1087,29.01837c26.39412,50.69358 68.80689,46.52469 84.82553,-8.3378l5.226,-17.8986c1.98604,-6.80201 11.02352,-14.30328 18.07497,-15.00255l0.54954,-0.0545c13.22116,-1.31108 22.718,10.13118 18.99369,22.88451l-5.69825,19.51278c-31.12773,12.95044 -51.33112,46.93694 -47.62222,84.33848c1.31544,13.26526 5.73617,25.49471 12.46899,36.03831z" id="Path 1" fill="#1dc690"/><path d="M223.2939,415.89017c0,5.19623 4.37577,9.57198 9.57198,9.57198c5.19623,0 9.57198,-4.37577 9.57198,-9.57198c0,-13.40078 -43.21068,-21.05836 -43.21068,-54.69706c0,-24.88716 20.2379,-45.12506 45.12506,-45.12506c24.88716,0 45.12506,20.2379 45.12506,45.12506h-35.55308c0,-5.19623 -4.37577,-9.57198 -9.57198,-9.57198c-5.19623,0 -9.57198,4.37577 -9.57198,9.57198c0,13.40078 43.21068,21.05836 43.21068,54.69706c0,24.88716 -20.2379,45.12506 -45.12506,45.12506c-24.88716,0 -45.12506,-20.2379 -45.12506,-45.12506z" id="Path 1" fill="#e57f84"/><path d="M174.50326,357.14584c4.80415,-10.2946 7.54938,-21.27554 7.54938,-33.2859c0,-16.59657 -3.90709,-31.98725 -11.81172,-44.74336h11.76958c3.07027,0 6.14054,3.07027 6.14054,6.14054v0.14961c10.66592,-6.56364 23.24624,-10.39244 36.92051,-10.39244v35.55308c-20.51139,0 -36.92051,16.40912 -36.92051,36.92051v68.37133h-32.21025c-1.67141,0 -3.34283,-1.67141 -3.34283,-3.34283v-1.2619v-26.59982v-27.50882z" id="Path 1" fill="#278ab0"/><path d="M145.23812,397.38859c-10.70473,6.22043 -23.14451,9.73383 -36.43235,9.73383c-39.92885,0 -72.47359,-32.54474 -72.47359,-72.47359c0,-39.92885 30.08339,-72.47359 67.55087,-72.47359c45.67203,0 67.82435,28.44247 67.82435,63.72207c0,9.57198 -2.18789,18.32352 -6.01669,26.52807h-89.42969c6.29015,11.48638 18.32352,19.14396 32.54474,19.14396c10.11895,0 19.41744,-4.10229 25.9811,-10.66592l10.45125,10.45125zM130.51819,326.60106c8.1296,0 14.71993,-6.59034 14.71993,-14.71993c0,-8.1296 -6.59034,-14.71993 -14.71993,-14.71993c-8.1296,0 -14.71993,6.59034 -14.71993,14.71993c0,8.1296 6.59034,14.71993 14.71993,14.71993zM81.25208,326.60106c8.1296,0 14.71993,-6.59034 14.71993,-14.71993c0,-8.1296 -6.59034,-14.71993 -14.71993,-14.71993c-8.1296,0 -14.71993,6.59034 -14.71993,14.71993c0,8.1296 6.59034,14.71993 14.71993,14.71993z" id="CompoundPath 1" fill="#f1c0b9"/></g></g></svg>